<svg width="362" height="304" viewBox="0 0 362 304" fill="none" xmlns="http://www.w3.org/2000/svg">
<path d="M243.817 281.461C240.401 283.144 237.629 284.926 235.742 282.781C233.403 280.12 232.189 276.938 231.375 273.489C230.265 268.78 228.307 264.49 225.547 260.529C219.268 261.941 214.236 260.196 208.116 262.714C207.896 263.056 207.509 263.791 207.244 264.04C200.76 270.09 191.026 269.37 183.009 267.346C171.149 264.353 169.286 269.426 164.781 267.96L158.051 265.769C148.338 262.608 145.374 267.197 135.603 265.704C132.755 265.269 127.445 263.754 127.201 260.116L121.947 259.666C118.812 259.395 116.202 258.042 113.295 256.505L110.615 260.945C111.283 265.983 112.551 270.823 114.732 275.312C117.388 276.317 120.102 277.093 122.368 278.736C123.664 279.676 124.75 281.911 123.313 283.076C121.953 284.181 119.718 283.982 118.007 283.988C114.717 284.001 111.56 284.075 108.431 282.97C106.751 282.377 105.406 280.471 104.531 278.925L100.164 271.192L98.1178 271.931C96.166 270.341 94.3271 268.361 93.1165 266.132C92.4761 264.949 92.9487 264.148 93.336 263.192C94.7541 259.693 96.9833 257.334 100.021 255.195C101.93 253.851 103.238 251.364 104.458 249.533C103.708 248.872 103.061 248.241 102.649 247.568L104.677 242.722L110.786 228.848C112.841 224.176 114.823 219.874 117.659 215.596C122.24 208.683 126.695 201.862 130.059 194.198C132.694 188.191 138.848 159.966 142.486 149.411L144.233 144.341C147.039 136.205 150.482 128.757 155.212 121.108L138.509 129.875C129.553 134.575 118.315 139.384 108.666 142.308C105.062 143.401 101.369 143.932 97.6664 143.671C94.998 143.485 93.1348 142.19 91.9576 140.157C90.6677 137.931 90.753 135.575 91.8051 133.181C94.1991 127.73 98.5294 123.992 103.604 121.214C107.986 117.659 110.987 113.332 116.382 110.948C118.992 109.793 120.871 108.082 123.112 106.331C127.631 102.799 132.66 100.027 137.722 97.3723C138.555 96.9346 139.098 97.0029 139.342 95.9691C140.796 89.7821 142.846 84.0111 145.331 78.1749L151.138 64.5343C148.359 64.348 146.45 62.6282 145.453 60.0671C143.718 55.6185 144.852 50.3659 148.518 47.1157C146.85 50.369 145.383 53.222 145.746 56.8137C146.042 59.738 147.28 62.4575 149.957 63.6682C147.359 60.7687 146.249 56.494 148.137 52.9581C147.78 57.149 148.451 60.9953 151.458 63.6433C152.052 62.1253 152.986 60.6041 153.291 59.1109C153.684 57.1862 153.864 55.3919 155.303 53.8025C157.273 51.6232 160.085 50.456 163.061 50.2045C167.27 49.8537 170.411 46.5848 170.405 42.217C170.399 37.8802 168.008 35.198 168.968 30.4173L167.761 30.1689C168.127 32.3637 168.971 34.0866 168.468 36.4087C167.785 34.3381 167.3 32.2675 167.416 29.9764C164.62 28.2411 163.79 24.5904 165.355 21.7685C166.681 19.375 168.596 21.2066 169.999 20.8993C174.744 19.5644 177.748 14.6657 179.474 10.3786C179.974 9.13372 180.267 8.30796 181.045 7.40459L179.922 10.9405C178.904 14.1473 177.077 17.0064 174.796 19.5458C177.864 18.3195 180.24 15.6529 181.316 12.2008L182.884 7.17797C183.115 6.43603 183.951 5.65993 184.661 5.54197C182.719 9.96569 183.368 12.1015 180.721 16.4973C182.078 15.7181 186.845 14.0324 187.229 16.4662C184.878 16.4507 183.115 16.6432 180.947 17.4379L180.691 16.5532C179.148 18.1985 177.898 19.5923 176.062 20.0425L173.436 20.6882L182.862 20.0487C183.332 18.7728 183.777 17.7608 184.735 17.053C185.463 16.5159 186.915 16.7487 187.647 17.3199C188.287 17.8166 188.669 18.8287 189.175 19.9183C189.147 17.3572 189.474 14.4049 188.178 11.9866L185.067 6.18457C189.416 5.27499 192.288 11.6607 191.172 14.8985C192.703 11.5241 191.874 7.83609 188.836 5.76238C187.796 5.05148 186.436 4.60445 185.186 3.98357C187.961 3.19196 190.34 4.95214 191.871 7.10346C193.841 9.87256 193.792 13.9362 190.913 16.0627C190.27 15.1345 190.675 14.3118 190.7 13.3619C190.764 10.7138 189.038 8.23656 186.406 6.96377C189.092 10.0185 190.7 14.1628 190.206 18.6797L191.154 17.233C191.419 16.8294 192.676 16.6898 193.008 17.0405C194.844 18.9622 194.283 21.6785 193.868 24.0005C193.691 24.9877 194.499 26.1115 192.749 26.7727C190.788 27.5147 192.301 31.2896 190.294 36.3435C189.571 38.1627 187.516 38.3334 185.75 38.4979C185.491 40.314 186.253 41.981 187.235 43.4463C189.092 46.2278 189.733 49.7078 188.037 52.6476C187.04 54.3768 185.521 55.8607 183.42 55.7924C185.323 54.5848 186.753 52.955 187.318 51.1638C189.013 45.7715 183.92 43.4525 184.588 38.411L181.24 38.1813C180.453 40.0439 179.727 42.0121 179.313 44.1013L178.01 50.7105L180.657 53.728C184.765 51.4711 183.875 47.2336 183.484 42.9993C186.311 46.6562 185.152 52.7811 181.069 54.9666C182.219 57.7823 183.063 60.7252 184.5 63.3049C185.558 65.2048 187.107 66.6297 188.016 68.8928L202.596 61.0729C209.994 57.1055 213.995 57.506 220.89 53.8646C227.938 50.1424 241.792 45.9143 249.437 48.0004C251.965 48.6896 254.259 50.8937 254.216 53.7093C254.173 56.525 252.734 58.9775 250.993 61.0077C247.574 64.9999 243.625 68.1043 239.462 71.308C234.479 75.1419 229.249 78.2121 223.928 81.5804C220.036 84.0452 216.389 86.4418 212.352 88.6366L207.219 91.4274C207.359 93.6595 205.755 94.6187 204.969 96.2113C204.349 97.4685 204.014 98.8282 203.026 99.9054L200.022 103.184C199.525 103.727 198.147 104.093 197.317 104.416L199.665 108.955C202.834 115.08 209.967 119.693 208.707 128.5C208.649 128.913 209.296 129.856 209.665 130.055C211.055 130.8 210.641 133.088 211.168 134.088C212.071 135.792 216.938 141.352 217.527 142.538C221.095 149.715 220.119 159.469 218.347 157.83C217.829 157.349 217.643 156.504 217.444 155.762L216.825 158.271C216.74 158.615 215.92 159.062 215.627 158.938C215.334 158.814 215.035 158.23 215.002 157.83C214.739 154.744 214.297 152 213.794 148.982C213.477 147.079 212.105 145.589 210.473 144.354C207.118 141.814 207.704 138.294 208.826 140.172C211.184 144.118 211.281 142.289 213.459 145.682L215.127 148.284C215.544 148.231 215.444 148.278 215.663 147.998L213.495 142.469C213.312 142.004 213.26 141.402 213.462 140.765C215.468 143.463 216.31 146.542 217.155 149.799L218.466 154.871C218.786 151.078 218.835 146.726 216.624 143.724L210.116 134.892L205.307 138.359L206.591 141.259C208.82 146.297 212.474 148.837 211.559 155.893C209.665 154.825 210.854 150.901 208.232 146.965C207.186 145.394 206.002 143.842 205.432 142.078L204.365 138.775C202.379 139.086 201.272 137.881 200.37 136.282L196.122 134.889C197.037 138.542 197.805 142.153 199.226 145.729L210.009 172.824L215.913 187.057C216.901 189.442 217.856 191.695 218.652 194.163L222.141 204.936C224.071 210.893 225.928 216.648 228.337 222.426L237.504 244.426C238.431 246.655 238.587 248.831 239.307 251.194L235.229 254.776C236.748 257.837 238.352 260.755 240.337 263.555C240.749 264.139 241.914 264.735 242.619 264.782C248.623 265.182 254.259 264.279 260.025 262.785C261.938 262.292 266.661 261.212 267.79 263.124C268.878 264.968 265.573 267.79 264.243 269.028C259.836 273.126 254.701 275.762 248.882 277.258L245.089 278.233C245.485 279.748 245.055 280.853 243.823 281.458L243.817 281.461Z" fill="#B9653B" fill-opacity="0.6"/>
<path d="M141.769 116.579C140.287 118.221 137.732 118.299 135.728 117.65L123.914 113.822L118.995 112.13C119.736 111.454 120.743 111.485 121.578 111.752L136.89 116.653C138.393 117.135 139.848 116.536 141.772 116.579H141.769Z" fill="#B9653B" fill-opacity="0.6"/>
<path d="M143.01 61.9142C144.368 63.7582 146.304 64.1493 148.741 64.5964C146.63 65.9809 143.675 65.1458 141.971 63.1156C139.821 60.5514 139.546 57.1211 140.992 53.9453C138.97 54.414 137.07 54.0291 135.707 52.4117C134.813 51.35 134.06 49.9934 134.24 48.2829C135.789 50.3815 137.643 51.2879 139.869 50.1549C141.403 49.3726 142.093 47.7272 141.297 46.0167C140.659 44.6446 140.397 42.903 139.845 41.4906C139.037 39.4168 138.213 37.5853 139.025 35.0894C139.937 32.2954 141.955 29.9113 144.404 28.1604C149.247 24.6959 152.153 23.9292 153.254 16.4911C153.681 13.6133 154.242 10.8877 155.742 8.42904C157.703 5.21292 160.71 2.7822 163.985 1.26727C168.06 -0.617083 171.896 -0.135906 175.979 1.0034C178.267 1.6429 181.386 0.0813995 183.134 3.01192C180.63 1.54045 177.803 2.60525 175.315 2.05578C169.475 0.767465 163.848 1.63669 159.576 6.16286C153.12 12.9987 156.078 18.2109 152.199 26.7448C149.976 31.6373 144.474 32.7704 142.251 37.9888C139.827 43.6791 144.276 45.7994 142.55 49.149C141.193 51.7846 138.223 52.2255 135.725 51.0986C137.518 53.8242 140.47 53.5231 143.261 51.707C141.47 55.2802 140.665 58.7415 142.998 61.9142H143.01ZM140.101 40.2985C142.236 30.9854 149.631 32.5997 152.708 23.2928C150.775 25.4255 148.713 27.1018 146.258 28.5702C142.157 31.0257 138.339 35.4277 140.101 40.2985Z" fill="#B9653B" fill-opacity="0.6"/>
<path d="M160.561 33.2329C158.825 30.8301 158.975 27.5954 160.286 24.8511C163.918 17.8508 171.356 17.9036 175.848 10.8629C173.604 18.571 164.052 18.0929 160.875 26.6206C160.198 28.685 160.372 30.6718 160.558 33.2329H160.561Z" fill="#B9653B" fill-opacity="0.6"/>
<path d="M152.949 59.173C149.905 54.6407 151.201 47.7303 156.605 44.0423C158.99 42.4157 160.003 40.0719 160.731 37.1258C161.338 40.2364 159.518 43.2445 157.026 45.0606C152.632 48.2643 151.031 53.2778 152.949 59.1699V59.173Z" fill="#B9653B" fill-opacity="0.6"/>
<path d="M161.158 47.2833C164.464 44.39 166.382 40.5468 165.73 36.0207C165.461 34.1487 165.071 32.3575 164.934 30.3862C167.666 34.9434 167.718 45.579 161.155 47.2833H161.158Z" fill="#B9653B" fill-opacity="0.6"/>
<path d="M151.985 33.323C155.495 30.023 157.487 26.4716 158.377 21.6505C158.707 26.2108 156.569 31.5224 151.985 33.323Z" fill="#B9653B" fill-opacity="0.6"/>
<path d="M214.044 157.951C213.297 157.554 213.047 156.867 212.989 156.085C212.94 153.76 210.702 149.166 211.543 147.852C212.644 149.479 213.096 151.084 213.495 152.922L214.044 157.951Z" fill="#B9653B" fill-opacity="0.6"/>
<path d="M165.855 5.65372C161.722 8.35142 159.542 11.9308 158.014 16.578C158.276 11.8066 161.247 6.85201 165.855 5.65372Z" fill="#B9653B" fill-opacity="0.6"/>
<path d="M145.975 38.4359C144.447 42.8347 145.752 44.2379 144.575 46.3272C144.389 44.1417 144.288 39.8111 145.975 38.4359Z" fill="#B9653B" fill-opacity="0.6"/>
<path d="M170.801 262.723L170.6 253.137L171.499 229.274L171.582 210.35L171.377 204.703L171.402 164.631C171.402 162.766 171.646 161.002 171.853 159.124L171.994 197.907L172.372 208.8C172.649 216.862 172.719 224.589 172.384 232.676L171.259 259.659L170.807 262.72L170.801 262.723Z" fill="#B9653B" fill-opacity="0.6"/>
<path d="M205.106 250.498C205.539 252.709 205.795 254.472 205.975 256.822C203.279 247.021 201.434 236.991 200.113 226.579C199.046 218.145 197.723 210.182 196.015 201.881C194.377 193.918 193.026 186.17 191.962 178.117C191.788 176.81 191.721 175.643 191.834 174.33L193.151 181.302C194.579 188.855 195.746 196.187 197.384 203.712C199.01 211.185 200.086 218.402 201.089 225.989C202.178 234.247 203.468 242.172 205.103 250.498H205.106Z" fill="#B9653B" fill-opacity="0.6"/>
<path d="M221.476 248.766C215.081 234.284 213.724 219.02 209.335 203.579C208.637 201.117 207.744 198.907 207.317 196.33C210.415 204.088 212.358 211.982 214.078 220.249C215.782 228.442 217.731 236.28 220.341 244.162L221.476 248.769V248.766Z" fill="#B9653B" fill-opacity="0.6"/>
<path d="M127.775 208.431C128.458 205.78 129.693 203.924 130.827 201.738C134.414 194.834 137.915 188.051 140.607 180.718L144.801 169.307C144.157 173.678 142.702 177.465 141.22 181.572C137.771 191.13 133.008 200.087 127.772 208.434L127.775 208.431Z" fill="#B9653B" fill-opacity="0.6"/>
<path d="M162.36 252.044L162.729 247.586L164.138 234.517L165.483 221.525L165.73 217.8L166.05 211.923L166.205 206.916L166.498 201.331C166.544 200.471 166.733 199.512 166.931 198.531C167.117 200.052 166.879 201.567 166.824 203.213L166.586 210.222L166.333 217.179L166.044 221.833L165.803 225.567L162.332 255.357C162.134 254.258 162.256 253.252 162.354 252.05L162.36 252.044Z" fill="#B9653B" fill-opacity="0.6"/>
<path d="M164.333 128.528L160.079 149.575C160.606 139.682 162.723 130.192 165.483 120.81C166.044 119.82 166.026 118.702 167.279 118.082L164.333 128.525V128.528Z" fill="#B9653B" fill-opacity="0.6"/>
<path d="M180.52 135.953L180.331 143.693L179.883 138.086L178.757 117.945C179.023 117.721 179.261 117.458 179.361 117.551C180.328 118.476 180.584 133.364 180.52 135.95V135.953Z" fill="#B9653B" fill-opacity="0.6"/>
<path d="M157.804 134.324C157.197 132.542 163.015 119.1 164.257 118.591C164.36 118.547 164.656 118.653 164.647 118.764C164.638 118.876 164.552 119.339 164.461 119.506C162.07 123.97 160.057 129.294 157.801 134.324H157.804Z" fill="#B9653B" fill-opacity="0.6"/>
<path d="M127.311 237.898C125.174 241.933 123.722 246.127 120.584 249.471L128.546 233.794C128.748 235.33 127.879 236.479 127.311 237.898Z" fill="#B9653B" fill-opacity="0.6"/>
<path d="M184.869 133.51L181.743 119.935C183.917 124.163 184.652 128.882 184.869 133.51Z" fill="#B9653B" fill-opacity="0.6"/>
<path d="M214.901 75.027C214.297 74.611 213.769 74.2571 213.196 74.0709L209.363 72.8229C210.366 71.6681 215.038 73.3134 214.901 75.027Z" fill="#B9653B" fill-opacity="0.6"/>
<path d="M171.927 62.5661L170.399 58.608C169.289 55.7272 167.005 53.8987 163.921 53.2685C168.136 51.3904 173.402 58.9185 171.927 62.5661Z" fill="#B9653B" fill-opacity="0.6"/>
<path d="M169.978 26.5647C168.798 25.1398 168.752 24.0067 166.947 23.8298C167.203 23.4635 167.541 23.0568 167.822 23.0196C169.011 22.8705 170.542 25.5186 169.978 26.5647Z" fill="#B9653B" fill-opacity="0.6"/>
<path d="M172.429 271.295C170.192 271.352 168.422 271.308 166.091 271.09C176.142 270.07 186.275 269.934 196.693 270.382C205.131 270.747 213.152 270.779 221.568 270.487C229.641 270.206 237.456 270.175 245.52 270.479C246.829 270.527 247.984 270.658 249.25 270.991L242.201 271.121C234.565 271.261 227.188 271.182 219.543 271.536C211.952 271.887 204.704 271.736 197.105 271.45C188.836 271.135 180.858 271.077 172.43 271.292L172.429 271.295Z" fill="#B9653B" fill-opacity="0.6"/>
<path d="M233.214 272.723L232.702 270.16H246.515L242.934 271.185L233.214 272.723Z" fill="#F5E8CD"/>
<path d="M20 291.201L38.414 291.001L84.2522 291.896L120.603 291.978L131.45 291.775L208.421 291.799C212.005 291.799 215.392 292.042 219 292.249L144.503 292.388L123.579 292.765C108.093 293.041 93.2505 293.111 77.7167 292.777L25.8856 291.656L20.006 291.207L20 291.201Z" fill="#B9653B" fill-opacity="0.6"/>
<path d="M134 279.8L121.601 280.001L90.7347 279.105L66.2572 279.023L58.9533 279.226L7.12321 279.202C4.70999 279.202 2.42928 278.959 1.4881e-08 278.753L50.1637 278.613L64.2535 278.237C74.6813 277.96 84.6755 277.89 95.1355 278.224L130.037 279.345L133.996 279.794L134 279.8Z" fill="#B9653B" fill-opacity="0.6"/>
<path d="M362 259.8L349.601 260.001L318.735 259.105L294.257 259.023L286.953 259.226L235.123 259.202C232.71 259.202 230.429 258.959 228 258.753L278.164 258.613L292.253 258.237C302.681 257.96 312.676 257.89 323.136 258.224L358.037 259.345L361.996 259.794L362 259.8Z" fill="#B9653B" fill-opacity="0.6"/>
<path d="M274.909 291.235C272.823 291.287 271.173 291.247 269 291.045C278.37 290.1 287.815 289.974 297.527 290.389C305.394 290.727 312.87 290.757 320.716 290.486C328.242 290.227 335.527 290.197 343.044 290.479C344.265 290.523 345.341 290.644 346.522 290.953L339.95 291.073C332.831 291.203 325.955 291.13 318.828 291.457C311.752 291.782 304.995 291.643 297.912 291.378C290.203 291.087 282.766 291.032 274.909 291.232L274.909 291.235Z" fill="#B9653B" fill-opacity="0.6"/>
<path d="M337.455 273.546C338.694 273.57 339.669 273.644 340.944 273.843C335.332 274.213 329.727 274.031 324 273.475C319.361 273.023 314.933 272.791 310.268 272.751C305.792 272.712 301.474 272.525 297.038 272.122C296.318 272.057 295.688 271.945 295.008 271.703L298.91 271.808C303.136 271.923 307.205 272.168 311.448 272.149C315.662 272.131 319.656 272.417 323.836 272.797C328.384 273.212 332.787 273.46 337.455 273.548L337.455 273.546Z" fill="#B9653B" fill-opacity="0.6"/>
<path d="M30.9087 257.235C28.8231 257.287 27.1733 257.247 25 257.045C34.3699 256.1 43.8154 255.974 53.527 256.389C61.3937 256.727 68.8701 256.757 76.7158 256.486C84.2416 256.227 91.5267 256.197 99.0445 256.479C100.265 256.523 101.341 256.644 102.522 256.953L95.95 257.073C88.8314 257.203 81.9547 257.13 74.8284 257.457C67.7522 257.782 60.9948 257.643 53.9117 257.378C46.2031 257.087 38.7661 257.032 30.9092 257.232L30.9087 257.235Z" fill="#B9653B" fill-opacity="0.6"/>
<path d="M107.5 279.001L107 278.001H109L118 278.501L122 281.001L108.5 280.001L107.5 279.001Z" fill="#F6E7CB"/>
</svg>
