<svg width="361" height="128" viewBox="0 0 361 128" fill="none" xmlns="http://www.w3.org/2000/svg">
<g clip-path="url(#clip0_39_364)">
<path d="M190.442 25.3411L190.382 24.0921L183.032 26.4467C181.722 26.8847 180.406 27.3794 179.202 27.9687C179.517 31.2749 178.649 34.1215 176.677 36.1084C176.148 36.641 175.587 37.0708 175.006 37.4142C174.811 37.3249 174.613 37.2465 174.418 37.1654C175.09 36.8113 175.73 36.3382 176.313 35.7516C181.152 30.8775 178.101 21.651 173.349 16.8742L172.069 15.6118L171.976 15.5226L167.835 22.7945C165.564 26.9009 163.549 31.7453 166.625 35.3488C165.635 35.2623 164.648 35.2218 163.677 35.2218C154.533 35.2218 141.381 40.2716 141.381 55.4183C141.381 64.3799 145.764 70.1866 151.151 73.2171C144.763 76.4989 140.128 80.6647 140.128 87.1014C140.128 94.2976 145.138 98.2094 155.409 98.2094C147.392 101.364 141.506 106.29 141.506 114.116C141.506 121.942 151.653 128.003 163.05 128.003C177.203 128.003 189.981 119.42 189.981 105.027C189.981 78.0128 144.514 95.5601 144.514 84.8306C144.514 81.4217 148.271 76.7503 153.031 74.2281C156.663 75.869 160.294 76.5016 163.677 76.5016C172.945 76.5016 185.723 71.0733 185.723 55.421C185.723 49.2358 183.718 44.5645 180.588 41.4097C180.36 41.1799 180.13 40.9474 179.902 40.7176C180.035 40.7176 180.165 40.7176 180.301 40.7122C186.938 40.3986 190.684 31.5506 190.45 25.3465L190.442 25.3411ZM158.035 98.2094C175.695 98.2094 180.957 99.4718 180.957 110.201C180.957 120.931 173.693 125.729 165.299 125.729C157.783 125.729 150.017 121.942 150.017 111.212C150.017 103.892 154.276 100.483 158.035 98.2094ZM172.495 25.433C172.495 25.2924 172.608 25.1789 172.749 25.1789C172.891 25.1789 173.004 25.2924 173.004 25.433C173.004 25.7736 172.985 32.0102 171.86 36.2788C171.694 36.2328 171.529 36.1895 171.363 36.1463C172.47 31.9129 172.492 25.5141 172.492 25.433H172.495ZM165.849 74.6039C155.64 74.6039 149.345 61.8766 149.345 51.8986C149.345 44.0427 152.876 37.4439 160.707 37.1276C170.764 36.5788 177.748 50.0901 177.748 60.2249C177.748 67.8455 174.062 74.6012 165.849 74.6012V74.6039ZM176.948 38.4333C176.783 38.3333 176.615 38.2441 176.446 38.1495C180.13 35.7732 184.459 31.11 184.513 31.0505C184.608 30.9478 184.771 30.9424 184.874 31.0343C184.977 31.1289 184.985 31.2911 184.89 31.3938C184.665 31.6371 180.607 36.0084 176.945 38.4333H176.948Z" fill="#010101"/>
<path d="M134.522 0H123.374V93.5379H134.522V0Z" fill="#010101"/>
<path d="M340.082 36.103C332.317 36.103 327.182 40.7743 323.925 47.5894C320.92 39.8904 314.155 35.8489 304.759 35.8489C298.621 35.8489 293.861 38.8793 290.229 43.675V37.1113H279.082V93.538H290.229V46.7055C293.487 41.1501 298.247 37.3654 304.759 37.3654C310.645 37.3654 315.031 40.6473 315.031 54.7857V93.5406H325.677V60.9736C325.677 51.758 326.304 47.5921 328.183 44.4374C330.69 40.2715 334.571 37.7466 339.958 37.7466C347.723 37.7466 350.229 44.5644 350.229 55.1669V93.5406H361.003V58.8272C361.003 44.4374 353.362 36.1057 340.085 36.1057L340.082 36.103Z" fill="#010101"/>
<path d="M88.824 35.2271C73.3826 35.2271 59.2946 47.684 59.2946 65.6774C59.2946 85.7469 74.5109 94.8598 88.824 94.8598C102.123 94.8598 118.239 84.2493 118.239 64.5258C118.239 44.8022 102.798 35.2298 88.824 35.2298V35.2271ZM92.2063 92.4376C77.2151 92.4376 67.9742 73.7522 67.9742 59.1056C67.9742 47.5705 73.1575 37.8817 84.6551 37.4222C99.4184 36.6139 109.677 56.4536 109.677 71.3327C109.677 82.5218 104.265 92.4403 92.2063 92.4403V92.4376Z" fill="#010101"/>
<path d="M253.96 35.2649C253.96 35.2649 253.941 35.2649 253.933 35.2649C253.512 35.2433 251.522 35.1568 248.88 35.3677C245.999 35.5974 243.672 36.0732 242.98 36.2219C240.252 36.8031 237.868 37.5709 235.863 38.3521L235.424 50.1711L236.522 50.4036C237.135 48.6789 239.072 43.9588 244.092 40.4391C246.091 39.0388 248.242 38.1953 248.242 38.1953C249.49 37.7141 250.83 37.2032 252.558 37.1248C253.171 37.1356 253.748 37.1627 254.288 37.2113C255.604 37.3843 257.481 37.8574 259.176 39.1172C259.268 39.1875 259.363 39.2442 259.455 39.2956C261.742 41.8151 262.064 46.9622 262.064 56.9375C262.064 65.5206 228.621 65.5206 231.127 84.0763C232.63 94.4273 251.795 99.6042 262.064 89.1261V93.5433H273.212V56.6834C273.212 41.7935 264.709 35.8191 253.963 35.2703L253.96 35.2649ZM262.064 86.2173C254.926 95.3059 242.4 91.2671 241.396 83.1869C240.268 71.0678 254.047 66.1451 262.064 61.7278V86.2173Z" fill="#010101"/>
<path d="M229.484 38.3494C229.489 38.3278 229.495 38.3089 229.5 38.2873C228.456 37.6223 222.082 33.7078 214.197 35.8489C208.547 37.3817 205.094 41.2177 203.133 44.3481V37.1113H191.985V93.5379H203.133V49.5007C205.593 43.7615 209.787 39.9904 214.273 39.3875C215.499 39.2226 218.884 39.0064 223.218 41.9854C226.826 45.2321 228.339 48.933 228.868 50.4171L229.966 50.1846L229.527 38.3657C229.513 38.3603 229.497 38.3549 229.484 38.3494Z" fill="#010101"/>
<path d="M46.6877 56.9132C42.3316 53.4908 36.5001 50.9902 29.8847 48.3058L28.6533 47.7895C19.358 43.894 8.82327 39.4795 8.82327 29.2095C8.82327 24.6274 10.5429 20.767 13.795 18.0475C16.7976 15.5361 20.9773 14.152 25.5585 14.152C37.0968 14.152 45.6488 20.0533 50.2897 31.2181L50.3358 31.3316L51.6784 30.9207L51.2227 17.3905L51.1549 17.3527C46.7582 14.9305 39.3725 12.0406 29.1577 12.0406C12.4036 12.0406 1.57859 20.721 1.57859 34.1593C1.57859 39.9661 3.46096 44.3725 7.49965 48.0274C11.2237 51.3984 16.5372 53.9423 23.3696 56.7267L24.3677 57.1403C33.7362 61.0061 46.5656 66.2992 46.5656 77.3207C46.5656 81.6676 44.8053 85.5929 41.6074 88.3692C38.5452 91.0293 34.4034 92.4945 29.9443 92.4945C22.7159 92.4945 16.5209 90.275 11.5329 85.8956C7.29622 82.1786 3.92206 76.9152 1.50536 70.2542L1.46738 70.146L0.00271606 70.4191L0.572309 86.5985L0.623844 86.6364C5.97802 90.5994 15.9025 94.8356 27.6985 94.8356C34.4116 94.8356 41.0541 92.5756 45.9201 88.6341C51.2281 84.3358 54.152 78.2722 54.152 71.568C54.152 65.6558 51.7109 60.8628 46.6904 56.9159L46.6877 56.9132Z" fill="#010101"/>
</g>
<defs>
<clipPath id="clip0_39_364">
<rect width="361" height="128" fill="white"/>
</clipPath>
</defs>
</svg>
